<svg id="chat-right-dots-fill" xmlns="http://www.w3.org/2000/svg" width="55.526" height="40.901" viewBox="0 0 55.526 40.901">
  <path id="Path_40" data-name="Path 40" d="M55.527,5.349C55.527,2.4,52.419,0,48.586,0H6.941C3.108,0,0,2.4,0,5.349v21.4C0,29.7,3.108,32.1,6.941,32.1H40.207a4.053,4.053,0,0,1,2.455.784l9.9,7.63a2.131,2.131,0,0,0,1.892.289,1.388,1.388,0,0,0,1.073-1.235Zm-38.174,10.7c0,1.477-1.554,2.675-3.47,2.675s-3.47-1.2-3.47-2.675,1.554-2.675,3.47-2.675S17.352,14.571,17.352,16.048Zm13.882,0c0,1.477-1.554,2.675-3.47,2.675s-3.47-1.2-3.47-2.675,1.554-2.675,3.47-2.675S31.234,14.571,31.234,16.048Zm10.411,2.675c1.917,0,3.47-1.2,3.47-2.675s-1.554-2.675-3.47-2.675-3.47,1.2-3.47,2.675S39.728,18.723,41.645,18.723Z" fill-rule="evenodd"/>
</svg>
