<svg xmlns="http://www.w3.org/2000/svg" width="441.629" height="329.14" viewBox="0 0 441.629 329.14">
  <g id="Group_20" data-name="Group 20" transform="translate(-1129.371 -126.93)">
    <path id="Path_395" data-name="Path 395" d="M532.094,238.549c3.057,0,6.032-.114,8.479-.328l.151-.013,31.936-2.844c6.219-.555,7.4-1.592,2.627-2.316a101.392,101.392,0,0,0-19.9-.306L534.7,234.589l-48.879-7.423a101.357,101.357,0,0,0-19.891-.306h0l.3.049-.312-.049c-6.211.556-7.385,1.592-2.624,2.316l57.493,8.727a83.154,83.154,0,0,0,11.288.644Z" transform="translate(668.997 -43.309)" fill="#fff"/>
    <path id="Path_124" data-name="Path 124" d="M545.285,323.764H411.556a17.124,17.124,0,0,1-17.1-17.1V149.6a17.124,17.124,0,0,1,17.1-17.1H535.97l26.421,21.059v153.1A17.124,17.124,0,0,1,545.285,323.764Z" transform="translate(887.46 -5.57)" fill="#e6e6e6"/>
    <path id="Path_125" data-name="Path 125" d="M416.132,142a12.2,12.2,0,0,0-12.181,12.181V311.235a12.2,12.2,0,0,0,12.181,12.181H549.861a12.2,12.2,0,0,0,12.181-12.181V160.508L538.823,142Z" transform="translate(882.885 -10.146)" fill="#fff"/>
    <path id="Path_126" data-name="Path 126" d="M576.044,224.81H515.159a2.848,2.848,0,1,1,0-5.7h60.885a2.848,2.848,0,0,1,0,5.7Z" transform="translate(830.691 -47.289)" fill="#dd90ec"/>
    <path id="Path_127" data-name="Path 127" d="M587.794,243.357H515.159a2.848,2.848,0,1,1,0-5.7h72.635a2.848,2.848,0,1,1,0,5.7Z" transform="translate(830.691 -56.223)" fill="#dd90ec"/>
    <path id="Path_128" data-name="Path 128" d="M576.044,307.928H515.159a2.848,2.848,0,1,1,0-5.7h60.885a2.848,2.848,0,0,1,0,5.7Z" transform="translate(830.691 -87.324)" fill="#a299f1"/>
    <path id="Path_129" data-name="Path 129" d="M587.794,326.475H515.159a2.848,2.848,0,1,1,0-5.7h72.635a2.848,2.848,0,1,1,0,5.7Z" transform="translate(830.691 -96.258)" fill="#a299f1"/>
    <path id="Path_130" data-name="Path 130" d="M576.044,391.046H515.159a2.848,2.848,0,1,1,0-5.7h60.885a2.848,2.848,0,0,1,0,5.7Z" transform="translate(830.691 -127.36)" fill="#77f68c"/>
    <path id="Path_131" data-name="Path 131" d="M587.794,409.593H515.159a2.848,2.848,0,1,1,0-5.7h72.635a2.848,2.848,0,1,1,0,5.7Z" transform="translate(830.691 -136.293)" fill="#77f68c"/>
    <circle id="Ellipse_44" data-name="Ellipse 44" cx="10.068" cy="10.068" r="10.068" transform="translate(1310.429 169.412)" fill="#007af3"/>
    <path id="Path_395-2" data-name="Path 395" d="M463.791,234.177a1.044,1.044,0,0,1-.628-.209l-.011-.008-2.366-1.81a1.051,1.051,0,1,1,1.279-1.669l1.533,1.175,3.621-4.725a1.051,1.051,0,0,1,1.474-.195h0l-.023.031.023-.031a1.052,1.052,0,0,1,.194,1.474l-4.26,5.555a1.052,1.052,0,0,1-.836.41Z" transform="translate(855.707 -50.857)" fill="#fff"/>
    <circle id="Ellipse_44-2" data-name="Ellipse 44" cx="10.068" cy="10.068" r="10.068" transform="translate(1311.466 212.494)" fill="#ccc"/>
    <circle id="Ellipse_44-3" data-name="Ellipse 44" cx="10.068" cy="10.068" r="10.068" transform="translate(1310.429 255.577)" fill="#ccc"/>
    <path id="Path_132" data-name="Path 132" d="M692.932,154.606h-20.7a5.7,5.7,0,0,1-5.7-5.7V133.623a.356.356,0,0,1,.577-.279l26.037,20.627a.356.356,0,0,1-.221.635Z" transform="translate(756.404 -5.94)" fill="#e6e6e6"/>
    <path id="Path_133" data-name="Path 133" d="M351.148,482.215l-79.121,16.677a8.822,8.822,0,0,1-10.44-6.8L248.01,427.675a8.822,8.822,0,0,1,6.8-10.44l79.121-16.677a8.822,8.822,0,0,1,10.44,6.8l13.577,64.412A8.822,8.822,0,0,1,351.148,482.215Z" transform="translate(958.088 -134.594)" fill="#fff"/>
    <path id="Path_134" data-name="Path 134" d="M351.148,482.215l-79.121,16.677a8.822,8.822,0,0,1-10.44-6.8L248.01,427.675a8.822,8.822,0,0,1,6.8-10.44l79.121-16.677a8.822,8.822,0,0,1,10.44,6.8l13.577,64.412A8.822,8.822,0,0,1,351.148,482.215ZM255.029,418.25a7.784,7.784,0,0,0-6,9.211L262.6,491.874a7.784,7.784,0,0,0,9.211,6L350.934,481.2a7.784,7.784,0,0,0,6-9.211l-13.577-64.413a7.784,7.784,0,0,0-9.211-6Z" transform="translate(958.088 -134.594)" fill="#3f3d56"/>
    <path id="Path_411" data-name="Path 411" d="M365.771,439.1l-39.931,8.417a1.415,1.415,0,0,1-1.674-.966,1.364,1.364,0,0,1,1.036-1.687l40.648-8.568c1.587.894,1.085,2.558-.079,2.8Z" transform="translate(921.337 -151.901)" fill="#ccc"/>
    <path id="Path_412" data-name="Path 412" d="M368.618,452.617l-39.931,8.417a1.416,1.416,0,0,1-1.674-.966,1.364,1.364,0,0,1,1.036-1.687l40.648-8.568c1.587.894,1.085,2.558-.079,2.8Z" transform="translate(919.965 -158.41)" fill="#ccc"/>
    <path id="Path_413" data-name="Path 413" d="M299.393,466.481l-12.187,2.569a1.535,1.535,0,0,1-1.817-1.184l-3.031-14.381a1.535,1.535,0,0,1,1.184-1.817l12.187-2.569a1.536,1.536,0,0,1,1.817,1.184l3.031,14.381a1.535,1.535,0,0,1-1.184,1.817Z" transform="translate(941.468 -158.05)" fill="#ccc"/>
    <path id="Path_414" data-name="Path 414" d="M354.7,480.332l-60.942,12.846a1.416,1.416,0,0,1-1.674-.966,1.364,1.364,0,0,1,1.036-1.687l61.66-13c1.587.894,1.085,2.558-.079,2.8Z" transform="translate(936.789 -171.76)" fill="#ccc"/>
    <path id="Path_415" data-name="Path 415" d="M357.551,493.849l-60.942,12.846a1.416,1.416,0,0,1-1.674-.966,1.364,1.364,0,0,1,1.036-1.687l61.66-13c1.587.894,1.085,2.558-.079,2.8Z" transform="translate(935.417 -178.27)" fill="#ccc"/>
    <path id="Path_416" data-name="Path 416" d="M360.4,507.357,299.455,520.2a1.416,1.416,0,0,1-1.674-.966,1.364,1.364,0,0,1,1.036-1.687l61.66-13c1.587.894,1.085,2.558-.079,2.8Z" transform="translate(934.045 -184.777)" fill="#ccc"/>
    <path id="Path_417" data-name="Path 417" d="M363.247,520.873,302.3,533.719a1.416,1.416,0,0,1-1.674-.966,1.364,1.364,0,0,1,1.036-1.687l61.66-13c1.587.894,1.085,2.558-.079,2.8Z" transform="translate(932.673 -191.287)" fill="#ccc"/>
    <path id="Path_418" data-name="Path 418" d="M366.094,534.383l-60.943,12.845a1.415,1.415,0,0,1-1.674-.966,1.363,1.363,0,0,1,1.036-1.687l61.659-13c1.587.894,1.086,2.558-.079,2.8Z" transform="translate(931.302 -197.794)" fill="#ccc"/>
    <path id="Path_135" data-name="Path 135" d="M410.441,472.535a5.454,5.454,0,0,0-.354.783l-24.949,6.191-4.34-4.49-7.632,5.664,6.911,8.7a4.147,4.147,0,0,0,4.815,1.258l27.072-11.062a5.441,5.441,0,1,0-1.522-7.04Z" transform="translate(897.713 -168.014)" fill="#a0616a"/>
    <path id="Path_136" data-name="Path 136" d="M274.013,527.788a5.568,5.568,0,0,0,3.306-7.872l17.169-47.721-11.924-2.113-13.128,47.573a5.6,5.6,0,0,0,4.576,10.134Z" transform="translate(948.981 -168.173)" fill="#a0616a"/>
    <path id="Path_137" data-name="Path 137" d="M303.65,468.7l-11.773-4.518a2.5,2.5,0,0,1-1.28-3.557l6.176-10.95a6.934,6.934,0,0,1,12.932,5.007l-2.724,12.231a2.5,2.5,0,0,1-3.331,1.787Z" transform="translate(937.639 -156.209)" fill="#007af3"/>
    <path id="Path_138" data-name="Path 138" d="M119.524,598.988h6.355l3.023-24.511h-9.379Z" transform="translate(1148.337 -149.778)" fill="#a0616a"/>
    <path id="Path_139" data-name="Path 139" d="M364.216,750.263h12.515a7.975,7.975,0,0,1,7.975,7.975v.259h-20.49Z" transform="translate(902.023 -303.127)" fill="#2f2e41"/>
    <path id="Path_140" data-name="Path 140" d="M50.524,598.988h6.355L59.9,574.477H50.523Z" transform="translate(1181.572 -149.778)" fill="#a0616a"/>
    <path id="Path_141" data-name="Path 141" d="M295.216,750.263h12.515a7.975,7.975,0,0,1,7.975,7.975v.259h-20.49Z" transform="translate(935.259 -303.127)" fill="#2f2e41"/>
    <path id="Path_142" data-name="Path 142" d="M301.556,655.752h-8.041a2.333,2.333,0,0,1-2.33-2.443L295,571.24l.241-.007,38.833-1.012,7.6,82.115a2.333,2.333,0,0,1-2.136,2.546l-9.033.722a2.334,2.334,0,0,1-2.471-1.857l-11.554-58.456a.753.753,0,0,0-.761-.622h0a.754.754,0,0,0-.76.628L303.844,653.87a2.338,2.338,0,0,1-2.288,1.882Z" transform="translate(937.202 -216.407)" fill="#2f2e41"/>
    <circle id="Ellipse_11" data-name="Ellipse 11" cx="12.731" cy="12.731" r="12.731" transform="translate(1240.758 256.177)" fill="#a0616a"/>
    <path id="Path_143" data-name="Path 143" d="M314.429,517.551c-6.068,0-12.3-1.595-17.467-6.311a2.359,2.359,0,0,1-.762-2c.553-4.969,3.236-30.624,1.725-47.761a20.743,20.743,0,0,1,6.715-17.263,20.525,20.525,0,0,1,17.6-5.1h0c.159.028.317.058.476.089a20.621,20.621,0,0,1,16.473,21.942c-1.169,15.374-2.217,36.169-.572,47.929a2.329,2.329,0,0,1-1.252,2.4C333.625,513.378,324.242,517.551,314.429,517.551Z" transform="translate(934.791 -153.1)" fill="#007af3"/>
    <path id="Path_144" data-name="Path 144" d="M360.73,470.879a2.494,2.494,0,0,1-1.094-1.768l-1.551-12.435a6.934,6.934,0,0,1,13.349-3.757l5.109,11.487a2.5,2.5,0,0,1-1.612,3.42l-12.148,3.381A2.494,2.494,0,0,1,360.73,470.879Z" transform="translate(905.103 -157.47)" fill="#007af3"/>
    <path id="Path_145" data-name="Path 145" d="M319.578,403.464a9.122,9.122,0,0,1-3.523-.637c-.493-.19-1.005-.346-1.5-.536a12.145,12.145,0,0,1-7.313-10.968,15.8,15.8,0,0,1,5.893-12.161,22.8,22.8,0,0,1,12.87-4.864c5.005-.381,10.641.888,13.438,5.057a4.391,4.391,0,0,1,.824,3.8,2.428,2.428,0,0,1-.684,1.051c-1.249,1.111-2.494.276-3.768.2a4.165,4.165,0,0,0-3.887,2.975,8.964,8.964,0,0,0,.14,5.179,12.939,12.939,0,0,1,.652,3.149,3.166,3.166,0,0,1-1.312,2.788,3.614,3.614,0,0,1-3.624-.382,25.176,25.176,0,0,0-3.222-2.063c-1.182-.486-2.77-.378-3.458.7a3.825,3.825,0,0,0-.437,1.262c-.617,2.81-.475,2.645-1.092,5.455Z" transform="translate(929.467 -122.005)" fill="#2f2e41"/>
    <path id="Path_146" data-name="Path 146" d="M347.488,766.537H249.005a.518.518,0,1,1,0-1.037h98.483a.518.518,0,1,1,0,1.037Z" transform="translate(957.767 -310.467)" fill="#ccc"/>
    <path id="Path_147" data-name="Path 147" d="M818.178,492.449l-70.523,39.558a8.822,8.822,0,0,1-12-3.374l-32.2-57.413a8.822,8.822,0,0,1,3.375-12l70.523-39.558a8.822,8.822,0,0,1,12,3.374l32.2,57.413a8.822,8.822,0,0,1-3.374,12Z" transform="translate(739.165 -143.347)" fill="#fff"/>
    <path id="Path_148" data-name="Path 148" d="M818.178,492.449l-70.523,39.558a8.822,8.822,0,0,1-12-3.374l-32.2-57.413a8.822,8.822,0,0,1,3.375-12l70.523-39.558a8.822,8.822,0,0,1,12,3.374l32.2,57.413a8.822,8.822,0,0,1-3.374,12ZM707.336,460.128a7.784,7.784,0,0,0-2.977,10.585l32.2,57.413a7.784,7.784,0,0,0,10.585,2.977l70.523-39.558a7.784,7.784,0,0,0,2.977-10.585l-32.2-57.413a7.784,7.784,0,0,0-10.585-2.977Z" transform="translate(739.165 -143.347)" fill="#3f3d56"/>
    <path id="Path_411-2" data-name="Path 411" d="M815.236,460.141l-35.592,19.965a1.415,1.415,0,0,1-1.886-.421,1.364,1.364,0,0,1,.485-1.919l36.23-20.322c1.782.379,1.8,2.117.762,2.7Z" transform="translate(702.936 -162.085)" fill="#ccc"/>
    <path id="Path_412-2" data-name="Path 412" d="M821.992,472.185,786.4,492.149a1.415,1.415,0,0,1-1.886-.421,1.364,1.364,0,0,1,.485-1.919l36.23-20.322c1.782.379,1.8,2.117.762,2.7Z" transform="translate(699.681 -167.886)" fill="#ccc"/>
    <path id="Path_413-2" data-name="Path 413" d="M758.455,513.814l-10.862,6.093a1.535,1.535,0,0,1-2.088-.587l-7.19-12.818a1.535,1.535,0,0,1,.587-2.088l10.862-6.093a1.536,1.536,0,0,1,2.088.587l7.19,12.818a1.535,1.535,0,0,1-.587,2.088Z" transform="translate(721.927 -181.68)" fill="#ccc"/>
    <path id="Path_414-2" data-name="Path 414" d="M818.223,496.958,763.9,527.427a1.416,1.416,0,0,1-1.886-.421,1.363,1.363,0,0,1,.485-1.919l54.959-30.827C819.242,494.638,819.26,496.376,818.223,496.958Z" transform="translate(710.518 -179.818)" fill="#ccc"/>
    <path id="Path_415-2" data-name="Path 415" d="M824.981,509.006l-54.32,30.469a1.416,1.416,0,0,1-1.886-.421,1.364,1.364,0,0,1,.485-1.919l54.959-30.827c1.782.379,1.8,2.117.762,2.7Z" transform="translate(707.263 -185.621)" fill="#ccc"/>
    <path id="Path_416-2" data-name="Path 416" d="M831.734,521.046l-54.32,30.469a1.415,1.415,0,0,1-1.886-.421,1.364,1.364,0,0,1,.485-1.919l54.958-30.827c1.782.379,1.8,2.117.762,2.7Z" transform="translate(704.009 -191.421)" fill="#ccc"/>
    <path id="Path_417-2" data-name="Path 417" d="M838.492,533.093l-54.32,30.469a1.415,1.415,0,0,1-1.886-.421,1.364,1.364,0,0,1,.485-1.919l54.959-30.828c1.782.379,1.8,2.117.762,2.7Z" transform="translate(700.755 -197.223)" fill="#ccc"/>
    <path id="Path_418-2" data-name="Path 418" d="M845.246,545.135,790.926,575.6a1.415,1.415,0,0,1-1.886-.422,1.363,1.363,0,0,1,.485-1.919l54.959-30.827c1.782.379,1.8,2.117.762,2.7Z" transform="translate(697.501 -203.024)" fill="#ccc"/>
    <path id="Path_149" data-name="Path 149" d="M868.39,570.349a4.9,4.9,0,0,0-3.255-6.772l-1.477-17.351-7.1,5.6,2.492,15.617a4.927,4.927,0,0,0,9.345,2.9Z" transform="translate(664.88 -204.849)" fill="#ffb8b8"/>
    <path id="Path_150" data-name="Path 150" d="M851,519.465l-5.9.7a2.193,2.193,0,0,1-2.45-2.083l-.861-19.905-11.184-30.554a6.3,6.3,0,0,1,.332-6,8.231,8.231,0,0,1,.937-1.209,6.277,6.277,0,0,1,5.475-1.944,6.545,6.545,0,0,1,4.915,3.416l7.294,15.284a43.417,43.417,0,0,1,4.2,20.512l-.823,19.69a2.192,2.192,0,0,1-1.9,2.081Z" transform="translate(677.667 -162.554)" fill="#007af3"/>
    <path id="Path_151" data-name="Path 151" d="M647.017,590.056l-5.47,2.4L629.682,572.5l8.074-3.544Z" transform="translate(902.609 -147.118)" fill="#ffb8b8"/>
    <path id="Path_152" data-name="Path 152" d="M901.055,744.626l-17.639,7.742-.1-.223a7.5,7.5,0,0,1,3.852-9.879h0l10.773-4.729Z" transform="translate(652.294 -296.997)" fill="#2f2e41"/>
    <path id="Path_153" data-name="Path 153" d="M513.244,601.063H507.27l-2.842-23.043h8.817Z" transform="translate(962.94 -151.484)" fill="#ffb8b8"/>
    <path id="Path_154" data-name="Path 154" d="M754.294,758.956H735.031v-.244a7.5,7.5,0,0,1,7.5-7.5h11.766Z" transform="translate(723.414 -303.585)" fill="#2f2e41"/>
    <path id="Path_155" data-name="Path 155" d="M816.127,631.362l-33.28-74.268a.731.731,0,0,0-1.377.1l-20.278,71.734a2.18,2.18,0,0,1-2.334,1.607l-11.074-1.107a2.205,2.205,0,0,1-1.969-2.359c3.522-43.811,9.075-85.16,25.71-112.229l.089-.144,25.162,4.934L830.367,626.6a2.2,2.2,0,0,1-1.426,2.729l-10.13,3.256a2.185,2.185,0,0,1-2.685-1.219Z" transform="translate(718.223 -189.66)" fill="#2f2e41"/>
    <circle id="Ellipse_12" data-name="Ellipse 12" cx="11.969" cy="11.969" r="11.969" transform="translate(1490.029 263.195)" fill="#ffb8b8"/>
    <path id="Path_156" data-name="Path 156" d="M791.113,485.232l-.153-.031-.036-.151a52.064,52.064,0,0,1-.114-22.084,17.347,17.347,0,0,1,17.368-14.034h0a17.376,17.376,0,0,1,17.011,16.706,60.658,60.658,0,0,1-5.057,25.308l-.082.171Z" transform="translate(697.089 -157.984)" fill="#007af3"/>
    <path id="Path_157" data-name="Path 157" d="M725.261,544.33a4.9,4.9,0,0,0,3.93-6.4l13.786-10.639-8.559-2.937L722.639,534.9a4.927,4.927,0,0,0,2.623,9.427Z" transform="translate(730.855 -194.312)" fill="#ffb8b8"/>
    <path id="Path_158" data-name="Path 158" d="M738.478,502.178a2.185,2.185,0,0,1-2.8-.494l-3.787-4.579a2.193,2.193,0,0,1,.424-3.188l16.267-11.5,19.627-25.95a6.3,6.3,0,0,1,5.221-2.968,8.212,8.212,0,0,1,1.524.133h0a6.275,6.275,0,0,1,4.6,3.55,6.544,6.544,0,0,1-.209,5.982L764.81,486.7l-.032.052Z" transform="translate(725.168 -160.184)" fill="#007af3"/>
    <path id="Path_159" data-name="Path 159" d="M807.875,398.155c-.882-1.451-2.829-1.861-4.519-1.7s-3.334.76-5.032.746c-4.715-.037-8.355-5.783-6.372-10.062,1.626-3.509,5.686-5.049,9.359-6.259,7.7-2.535,16.548-4.971,23.536-.861a14.624,14.624,0,0,1,7.039,13.031c-.157,3.235-1.4,6.558-.348,9.623,1.209,3.536,5.042,5.433,8.664,6.351,6.35,1.609,13.045,1.35,19.434,2.792s12.937,5.274,14.659,11.594c1.131,4.151-.049,8.62-2,12.453a32.252,32.252,0,0,1-44.994,13.2c-7.725-4.51-13.3-12.134-16.626-20.438a68.433,68.433,0,0,1-3.956-15.031,33.436,33.436,0,0,1,1.236-14.365A1.32,1.32,0,0,0,807.875,398.155Z" transform="translate(696.263 -123.733)" fill="#2f2e41"/>
    <path id="Path_160" data-name="Path 160" d="M814.488,766.537H716.005a.518.518,0,0,1,0-1.037h98.483a.518.518,0,0,1,0,1.037Z" transform="translate(732.828 -310.467)" fill="#ccc"/>
  </g>
</svg>
