<svg xmlns="http://www.w3.org/2000/svg" width="391.733" height="352.407" viewBox="0 0 391.733 352.407">
  <g id="Group_20" data-name="Group 20" transform="translate(-1129 -130.921)">
    <path id="Path_16" data-name="Path 16" d="M364.216,750.263h13.428a8.557,8.557,0,0,1,8.557,8.557v.278H364.216Z" transform="translate(829.518 -275.77)" fill="#2f2e41"/>
    <path id="Path_18" data-name="Path 18" d="M295.216,750.263h13.428a8.557,8.557,0,0,1,8.557,8.557v.278H295.216Z" transform="translate(860.143 -275.77)" fill="#2f2e41"/>
    <path id="Path_31" data-name="Path 31" d="M755.7,759.52H735.031v-.261a8.045,8.045,0,0,1,8.045-8.045H755.7Z" transform="translate(664.933 -276.192)" fill="#2f2e41"/>
    <g id="Group_19" data-name="Group 19">
      <path id="Path_1" data-name="Path 1" d="M556.292,337.721H412.8a18.374,18.374,0,0,1-18.353-18.353V150.853A18.374,18.374,0,0,1,412.8,132.5H546.3l28.349,22.6V319.368A18.374,18.374,0,0,1,556.292,337.721Z" transform="translate(816.098 -1.579)" fill="#e6e6e6"/>
      <path id="Path_2" data-name="Path 2" d="M417.021,142a13.084,13.084,0,0,0-13.07,13.07V323.584a13.084,13.084,0,0,0,13.07,13.07H560.508a13.084,13.084,0,0,0,13.07-13.07V161.858L548.665,142Z" transform="translate(811.881 -5.796)" fill="#fff"/>
      <path id="Path_5" data-name="Path 5" d="M580.695,308.344H515.367a3.056,3.056,0,0,1,0-6.113h65.328a3.056,3.056,0,1,1,0,6.113Z" transform="translate(763.787 -76.913)" fill="#75d6e1"/>
      <path id="Path_6" data-name="Path 6" d="M593.3,326.891H515.367a3.056,3.056,0,0,1,0-6.113H593.3a3.056,3.056,0,1,1,0,6.113Z" transform="translate(763.787 -85.145)" fill="#75d6e1"/>
      <path id="Path_7" data-name="Path 7" d="M580.695,391.462H515.367a3.056,3.056,0,0,1,0-6.113h65.328a3.056,3.056,0,1,1,0,6.113Z" transform="translate(763.787 -113.805)" fill="#9ad685"/>
      <path id="Path_8" data-name="Path 8" d="M593.3,410.009H515.367a3.056,3.056,0,0,1,0-6.113H593.3a3.056,3.056,0,1,1,0,6.113Z" transform="translate(763.787 -122.037)" fill="#9ad685"/>
      <circle id="Ellipse_44" data-name="Ellipse 44" cx="10.802" cy="10.802" r="10.802" transform="translate(1241.147 176.503)" fill="#007af3"/>
      <circle id="Ellipse_44-2" data-name="Ellipse 44" cx="10.802" cy="10.802" r="10.802" transform="translate(1242.26 222.729)" fill="#ccc"/>
      <circle id="Ellipse_44-3" data-name="Ellipse 44" cx="10.802" cy="10.802" r="10.802" transform="translate(1241.147 268.956)" fill="#ccc"/>
      <path id="Path_10" data-name="Path 10" d="M358.688,488.187l-84.895,17.894a9.465,9.465,0,0,1-11.2-7.3l-14.568-69.113a9.465,9.465,0,0,1,7.3-11.2l84.895-17.894a9.465,9.465,0,0,1,11.2,7.3l14.568,69.113A9.465,9.465,0,0,1,358.688,488.187Z" transform="translate(881.179 -120.471)" fill="#fff"/>
      <path id="Path_11" data-name="Path 11" d="M358.688,488.187l-84.895,17.894a9.465,9.465,0,0,1-11.2-7.3l-14.568-69.113a9.465,9.465,0,0,1,7.3-11.2l84.895-17.894a9.465,9.465,0,0,1,11.2,7.3l14.568,69.113A9.465,9.465,0,0,1,358.688,488.187ZM255.555,419.555a8.352,8.352,0,0,0-6.442,9.883l14.568,69.113a8.352,8.352,0,0,0,9.884,6.442L358.458,487.1a8.352,8.352,0,0,0,6.443-9.883L350.333,408.1a8.352,8.352,0,0,0-9.883-6.442Z" transform="translate(881.179 -120.471)" fill="#3f3d56"/>
      <path id="Path_411" data-name="Path 411" d="M368.81,439.308l-42.845,9.031a1.519,1.519,0,0,1-1.8-1.036,1.463,1.463,0,0,1,1.112-1.81l43.614-9.193c1.7.96,1.165,2.745-.085,3.008Z" transform="translate(847.315 -136.42)" fill="#ccc"/>
      <path id="Path_412" data-name="Path 412" d="M371.658,452.821l-42.845,9.031a1.519,1.519,0,0,1-1.8-1.036,1.463,1.463,0,0,1,1.112-1.81l43.614-9.193c1.7.96,1.165,2.745-.085,3.008Z" transform="translate(846.051 -142.417)" fill="#ccc"/>
      <path id="Path_413" data-name="Path 413" d="M300.639,467.752l-13.076,2.756a1.648,1.648,0,0,1-1.95-1.271l-3.252-15.431a1.647,1.647,0,0,1,1.271-1.95l13.076-2.756a1.648,1.648,0,0,1,1.95,1.271L301.91,465.8a1.647,1.647,0,0,1-1.271,1.95Z" transform="translate(865.865 -142.085)" fill="#ccc"/>
      <path id="Path_414" data-name="Path 414" d="M359.274,480.536,293.885,494.32a1.519,1.519,0,0,1-1.8-1.036,1.463,1.463,0,0,1,1.111-1.81l66.159-13.945c1.7.96,1.165,2.745-.085,3.008Z" transform="translate(861.553 -154.719)" fill="#ccc"/>
      <path id="Path_415" data-name="Path 415" d="M362.123,494.054l-65.389,13.783a1.519,1.519,0,0,1-1.8-1.036,1.463,1.463,0,0,1,1.111-1.81l66.159-13.945c1.7.96,1.165,2.745-.085,3.008Z" transform="translate(860.289 -160.718)" fill="#ccc"/>
      <path id="Path_416" data-name="Path 416" d="M364.971,507.561l-65.39,13.783a1.519,1.519,0,0,1-1.8-1.036,1.463,1.463,0,0,1,1.112-1.81l66.159-13.945c1.7.96,1.165,2.745-.085,3.008Z" transform="translate(859.025 -166.713)" fill="#ccc"/>
      <path id="Path_417" data-name="Path 417" d="M367.82,521.078l-65.39,13.783a1.519,1.519,0,0,1-1.8-1.036,1.463,1.463,0,0,1,1.111-1.81L367.9,518.07c1.7.96,1.165,2.745-.085,3.008Z" transform="translate(857.76 -172.712)" fill="#ccc"/>
      <path id="Path_418" data-name="Path 418" d="M370.667,534.587l-65.39,13.783a1.519,1.519,0,0,1-1.8-1.036,1.463,1.463,0,0,1,1.112-1.81l66.159-13.945c1.7.96,1.165,2.745-.085,3.008Z" transform="translate(856.497 -178.708)" fill="#ccc"/>
      <path id="Path_12" data-name="Path 12" d="M413.161,472.738a5.854,5.854,0,0,0-.38.84l-26.77,6.643-4.657-4.818-8.189,6.078,7.415,9.33a4.45,4.45,0,0,0,5.166,1.35l29.047-11.87a5.838,5.838,0,1,0-1.633-7.554Z" transform="translate(825.546 -151.267)" fill="#a0616a"/>
      <path id="Path_13" data-name="Path 13" d="M274.544,532a5.975,5.975,0,0,0,3.547-8.447l18.422-51.2-12.794-2.267-14.086,51.044A6.007,6.007,0,0,0,274.544,532Z" transform="translate(872.788 -151.413)" fill="#a0616a"/>
      <path id="Path_14" data-name="Path 14" d="M304.626,470.414l-12.632-4.848a2.679,2.679,0,0,1-1.374-3.817L297.248,450a7.44,7.44,0,1,1,13.876,5.372L308.2,468.5a2.679,2.679,0,0,1-3.575,1.918Z" transform="translate(862.336 -140.389)" fill="#007af3"/>
      <path id="Path_15" data-name="Path 15" d="M119.524,600.777h6.818l3.243-26.3H119.523Z" transform="translate(1075.949 -124.058)" fill="#a0616a"/>
      <path id="Path_17" data-name="Path 17" d="M50.524,600.777h6.818l3.243-26.3H50.523Z" transform="translate(1106.574 -124.058)" fill="#a0616a"/>
      <path id="Path_19" data-name="Path 19" d="M302.313,661.993h-8.628a2.5,2.5,0,0,1-2.5-2.622l4.1-88.057.258-.007,41.667-1.086,8.153,88.107a2.5,2.5,0,0,1-2.292,2.731l-9.692.775a2.5,2.5,0,0,1-2.651-1.992l-12.4-62.721a.809.809,0,0,0-.817-.667h0a.809.809,0,0,0-.815.674l-11.925,62.845A2.508,2.508,0,0,1,302.313,661.993Z" transform="translate(861.934 -195.86)" fill="#2f2e41"/>
      <circle id="Ellipse_1" data-name="Ellipse 1" cx="13.66" cy="13.66" r="13.66" transform="translate(1166.393 269.6)" fill="#a0616a"/>
      <path id="Path_20" data-name="Path 20" d="M315.76,523.3c-6.511,0-13.2-1.711-18.741-6.771a2.531,2.531,0,0,1-.817-2.141c.593-5.331,3.472-32.858,1.851-51.246a22.257,22.257,0,0,1,7.205-18.523,22.023,22.023,0,0,1,18.888-5.469h0c.17.03.34.063.51.1a22.126,22.126,0,0,1,17.675,23.543c-1.255,16.5-2.379,38.808-.613,51.426a2.5,2.5,0,0,1-1.343,2.579C336.357,518.821,326.289,523.3,315.76,523.3Z" transform="translate(859.712 -137.524)" fill="#007af3"/>
      <path id="Path_21" data-name="Path 21" d="M360.942,472.559a2.676,2.676,0,0,1-1.174-1.9L358.1,457.32a7.44,7.44,0,1,1,14.323-4.031l5.482,12.325a2.679,2.679,0,0,1-1.73,3.669l-13.035,3.627A2.676,2.676,0,0,1,360.942,472.559Z" transform="translate(832.355 -141.551)" fill="#007af3"/>
      <path id="Path_22" data-name="Path 22" d="M320.478,405.6a9.787,9.787,0,0,1-3.78-.684c-.529-.2-1.078-.371-1.607-.576-4.664-1.8-7.737-6.769-7.847-11.769a16.947,16.947,0,0,1,6.323-13.049,24.469,24.469,0,0,1,13.809-5.219c5.371-.409,11.418.953,14.419,5.426a4.711,4.711,0,0,1,.884,4.072,2.606,2.606,0,0,1-.734,1.128c-1.34,1.192-2.676.3-4.043.217a4.469,4.469,0,0,0-4.171,3.192,9.618,9.618,0,0,0,.15,5.557,13.882,13.882,0,0,1,.7,3.379,3.4,3.4,0,0,1-1.408,2.991,3.877,3.877,0,0,1-3.889-.409,27.012,27.012,0,0,0-3.457-2.214c-1.268-.521-2.972-.406-3.71.75a4.1,4.1,0,0,0-.469,1.354c-.662,3.015-.51,2.837-1.171,5.853Z" transform="translate(854.806 -108.871)" fill="#2f2e41"/>
      <path id="Path_24" data-name="Path 24" d="M826.631,497.842l-75.669,42.445a9.465,9.465,0,0,1-12.871-3.621l-34.554-61.6a9.465,9.465,0,0,1,3.621-12.872l75.669-42.444a9.465,9.465,0,0,1,12.871,3.621l34.554,61.6a9.465,9.465,0,0,1-3.621,12.871Z" transform="translate(679.447 -128.537)" fill="#fff"/>
      <path id="Path_25" data-name="Path 25" d="M826.631,497.842l-75.669,42.445a9.465,9.465,0,0,1-12.871-3.621l-34.554-61.6a9.465,9.465,0,0,1,3.621-12.872l75.669-42.444a9.465,9.465,0,0,1,12.871,3.621l34.554,61.6a9.465,9.465,0,0,1-3.621,12.871ZM707.7,463.163a8.352,8.352,0,0,0-3.195,11.357l34.554,61.6a8.352,8.352,0,0,0,11.357,3.195l75.669-42.444a8.352,8.352,0,0,0,3.195-11.357l-34.554-61.6a8.352,8.352,0,0,0-11.357-3.195Z" transform="translate(679.447 -128.537)" fill="#3f3d56"/>
      <path id="Path_411-2" data-name="Path 411" d="M817.987,460.337,779.8,481.759a1.519,1.519,0,0,1-2.024-.452,1.463,1.463,0,0,1,.52-2.059l38.874-21.805c1.912.407,1.932,2.271.818,2.9Z" transform="translate(646.063 -145.803)" fill="#ccc"/>
      <path id="Path_412-2" data-name="Path 412" d="M824.743,472.382,786.554,493.8a1.519,1.519,0,0,1-2.024-.452,1.463,1.463,0,0,1,.52-2.059l38.874-21.805c1.912.407,1.932,2.271.818,2.9Z" transform="translate(643.064 -151.149)" fill="#ccc"/>
      <path id="Path_413-2" data-name="Path 413" d="M759.939,514.958,748.284,521.5a1.647,1.647,0,0,1-2.24-.63l-7.715-13.754a1.647,1.647,0,0,1,.63-2.24l11.655-6.538a1.648,1.648,0,0,1,2.24.63l7.715,13.754a1.647,1.647,0,0,1-.63,2.24Z" transform="translate(663.563 -163.86)" fill="#ccc"/>
      <path id="Path_414-2" data-name="Path 414" d="M822.339,497.155l-58.284,32.693a1.519,1.519,0,0,1-2.024-.452,1.463,1.463,0,0,1,.52-2.059l58.969-33.077C823.433,494.666,823.453,496.53,822.339,497.155Z" transform="translate(653.05 -162.144)" fill="#ccc"/>
      <path id="Path_415-2" data-name="Path 415" d="M829.1,509.2,770.814,541.9a1.519,1.519,0,0,1-2.024-.452,1.463,1.463,0,0,1,.52-2.059l58.969-33.077c1.912.407,1.932,2.271.818,2.9Z" transform="translate(650.05 -167.492)" fill="#ccc"/>
      <path id="Path_416-2" data-name="Path 416" d="M835.851,521.243l-58.283,32.692a1.519,1.519,0,0,1-2.024-.452,1.463,1.463,0,0,1,.52-2.059l58.969-33.077C836.945,518.754,836.964,520.618,835.851,521.243Z" transform="translate(647.052 -172.836)" fill="#ccc"/>
      <path id="Path_417-2" data-name="Path 417" d="M842.609,533.29l-58.284,32.693a1.519,1.519,0,0,1-2.024-.452,1.463,1.463,0,0,1,.52-2.059l58.969-33.078c1.912.407,1.932,2.271.818,2.9Z" transform="translate(644.053 -178.183)" fill="#ccc"/>
      <path id="Path_418-2" data-name="Path 418" d="M849.362,545.332l-58.284,32.692a1.519,1.519,0,0,1-2.023-.452,1.463,1.463,0,0,1,.52-2.059l58.969-33.077C850.456,542.843,850.476,544.707,849.362,545.332Z" transform="translate(641.056 -183.527)" fill="#ccc"/>
      <path id="Path_26" data-name="Path 26" d="M869.254,572.11a5.258,5.258,0,0,0-3.493-7.266l-1.585-18.617-7.623,6.013L859.227,569a5.286,5.286,0,0,0,10.027,3.113Z" transform="translate(610.996 -185.21)" fill="#ffb8b8"/>
      <path id="Path_27" data-name="Path 27" d="M852.537,523.92l-6.331.755a2.353,2.353,0,0,1-2.629-2.235l-.923-21.358-12-32.783a6.756,6.756,0,0,1,.357-6.433,8.823,8.823,0,0,1,1.005-1.3,6.735,6.735,0,0,1,5.874-2.086,7.022,7.022,0,0,1,5.274,3.665l7.826,16.4a46.585,46.585,0,0,1,4.5,22.009l-.883,21.127a2.351,2.351,0,0,1-2.041,2.233Z" transform="translate(622.779 -146.236)" fill="#007af3"/>
      <path id="Path_28" data-name="Path 28" d="M648.282,591.6l-5.87,2.576-12.73-21.414,8.663-3.8Z" transform="translate(849.517 -121.608)" fill="#ffb8b8"/>
      <path id="Path_29" data-name="Path 29" d="M902.4,745.143,883.47,753.45l-.105-.239a8.045,8.045,0,0,1,4.133-10.6h0l11.559-5.074Z" transform="translate(599.398 -270.122)" fill="#2f2e41"/>
      <path id="Path_30" data-name="Path 30" d="M513.888,602.745h-6.41l-3.049-24.725h9.461Z" transform="translate(905.111 -125.631)" fill="#ffb8b8"/>
      <path id="Path_32" data-name="Path 32" d="M821.258,639.875l-35.708-79.687a.784.784,0,0,0-1.477.1L762.315,637.26a2.339,2.339,0,0,1-2.5,1.724L747.928,637.8a2.366,2.366,0,0,1-2.112-2.532c3.78-47.008,9.737-91.374,27.586-120.418l.095-.155,27,5.294,36.043,114.776a2.363,2.363,0,0,1-1.53,2.928l-10.869,3.494a2.344,2.344,0,0,1-2.881-1.308Z" transform="translate(660.149 -171.213)" fill="#2f2e41"/>
      <circle id="Ellipse_2" data-name="Ellipse 2" cx="12.842" cy="12.842" r="12.842" transform="translate(1433.853 277.13)" fill="#ffb8b8"/>
      <path id="Path_33" data-name="Path 33" d="M791.217,487.881l-.164-.034-.039-.162a55.863,55.863,0,0,1-.123-23.7,18.613,18.613,0,0,1,18.635-15.058h0a18.644,18.644,0,0,1,18.252,17.925c.551,14.478-5.366,27.029-5.426,27.154l-.088.184Z" transform="translate(640.675 -142.025)" fill="#007af3"/>
      <path id="Path_34" data-name="Path 34" d="M725.676,545.788a5.258,5.258,0,0,0,4.217-6.872L744.684,527.5,735.5,524.35l-12.638,11.323a5.286,5.286,0,0,0,2.814,10.115Z" transform="translate(671.79 -175.5)" fill="#ffb8b8"/>
      <path id="Path_35" data-name="Path 35" d="M738.995,505.73a2.344,2.344,0,0,1-3-.53l-4.063-4.913a2.352,2.352,0,0,1,.455-3.42l17.454-12.343L770.9,456.68a6.756,6.756,0,0,1,5.6-3.184,8.813,8.813,0,0,1,1.635.143h0a6.732,6.732,0,0,1,4.935,3.809,7.022,7.022,0,0,1-.224,6.418l-15.593,25.253-.034.055Z" transform="translate(666.55 -144.052)" fill="#007af3"/>
      <path id="Path_36" data-name="Path 36" d="M809.077,399.638c-.946-1.557-3.035-2-4.849-1.819s-3.577.815-5.4.8c-5.059-.039-8.964-6.205-6.837-10.8,1.744-3.765,6.1-5.418,10.042-6.715,8.263-2.72,17.755-5.334,25.254-.923a15.691,15.691,0,0,1,7.553,13.982c-.169,3.471-1.5,7.037-.374,10.326,1.3,3.794,5.41,5.829,9.3,6.814,6.813,1.726,14,1.448,20.852,3s13.881,5.659,15.729,12.44c1.214,4.454-.053,9.249-2.15,13.362a34.606,34.606,0,0,1-48.277,14.16c-8.288-4.84-14.272-13.019-17.839-21.929a73.425,73.425,0,0,1-4.244-16.128,35.874,35.874,0,0,1,1.326-15.413,1.416,1.416,0,0,0-.083-1.156Z" transform="translate(639.914 -110.463)" fill="#2f2e41"/>
    </g>
  </g>
</svg>
