<svg xmlns="http://www.w3.org/2000/svg" width="455.409" height="324.281" viewBox="0 0 455.409 324.281">
  <g id="Group_18" data-name="Group 18" transform="translate(0)">
    <ellipse id="Ellipse_4" data-name="Ellipse 4" cx="40.022" cy="6.756" rx="40.022" ry="6.756" transform="translate(32.08 293.222)" opacity="0.1"/>
    <ellipse id="Ellipse_5" data-name="Ellipse 5" cx="40.022" cy="6.756" rx="40.022" ry="6.756" transform="translate(177.857 309.767)" opacity="0.1"/>
    <path id="Path_41" data-name="Path 41" d="M164.319,449.569c2.9,3.861,6.018,8.28,9.1,13.1l.44-22.214.243.155a43.357,43.357,0,0,0-10.725-5.733l.243.135Z" transform="translate(-130.917 -279.497)" fill="#e6e6e6"/>
    <path id="Path_42" data-name="Path 42" d="M148.137,432.885a22.839,22.839,0,0,0-11.343-1.175c-.183.033-.363.07-.543.108.895.96,6.108,6.628,12.562,15.171Z" transform="translate(-115.921 -277.594)" fill="#e6e6e6"/>
    <path id="Path_43" data-name="Path 43" d="M214.781,519.5q.712,1.7,1.354,3.377l8.148-24.057.234.224q-1.443-2.714-3.06-5.278L214.892,519.6Z" transform="translate(-159.334 -312.056)" fill="#e6e6e6"/>
    <path id="Path_44" data-name="Path 44" d="M194.616,484.11l4.258-25.222.242.193A68.157,68.157,0,0,0,187.36,448.1l-.449,22.637Q191.214,477.523,194.616,484.11Z" transform="translate(-143.927 -286.807)" fill="#e6e6e6"/>
    <path id="Path_45" data-name="Path 45" d="M107.257,488.34l-.1-.308a56.911,56.911,0,0,0,2.249,11.248l39.151,4.038c-2.044-3.769-4.154-7.305-6.2-10.528Z" transform="translate(-99.836 -308.885)" fill="#e6e6e6"/>
    <path id="Path_46" data-name="Path 46" d="M112.5,514.182l-.1-.308q.594,1.937,1.332,3.918l-.105-.307,39.625,3.522q-.718-1.4-1.452-2.772Z" transform="translate(-102.731 -323.171)" fill="#e6e6e6"/>
    <path id="Path_47" data-name="Path 47" d="M209.13,507.511l6.511-25.618.238.21a81.39,81.39,0,0,0-6.5-8.841l-4.315,25.564Q207.309,503.23,209.13,507.511Z" transform="translate(-153.963 -300.72)" fill="#e6e6e6"/>
    <path id="Path_48" data-name="Path 48" d="M170.187,557.158l-38.56-3.713a78.734,78.734,0,0,0,6.835,8.024l-.1-.341,35.247,7.251A97.9,97.9,0,0,0,170.187,557.158Z" transform="translate(-113.364 -345.047)" fill="#e6e6e6"/>
    <path id="Path_49" data-name="Path 49" d="M121.926,432.6l.091-.195c-5.3,1.2-9.043,4.81-11.1,10.03l23.588,5.33C127.517,438.526,122.006,432.686,121.926,432.6Z" transform="translate(-101.913 -278.134)" fill="#e6e6e6"/>
    <path id="Path_50" data-name="Path 50" d="M218.927,531.756a97.272,97.272,0,0,1,3.083,10.124l9.182-23.03.224.225a38.56,38.56,0,0,0-2.932-9.28q-.813-1.739-1.7-3.426l-8.245,24.344C218.669,531.061,218.8,531.41,218.927,531.756Z" transform="translate(-161.412 -319.023)" fill="#e6e6e6"/>
    <path id="Path_51" data-name="Path 51" d="M141.723,474.122c-3.051-4.759-6.139-9.125-9-12.94l-24.129-5.452-.082-.3a32.822,32.822,0,0,0-1.6,14.283Z" transform="translate(-99.614 -290.858)" fill="#e6e6e6"/>
    <path id="Path_52" data-name="Path 52" d="M122.314,536.154l38.78,3.734.008-.023a132.091,132.091,0,0,0-5.752-13.006l-39.722-3.531q1.012,2.679,2.287,5.415a47.341,47.341,0,0,0,4.4,7.41Z" transform="translate(-104.52 -328.398)" fill="#e6e6e6"/>
    <path id="Path_53" data-name="Path 53" d="M322.239,555.255l.088.274a43.359,43.359,0,0,0-4.6-11.256l.1.259-8.749,11.66c-.233,4.82-.646,10.216-1.343,15.891Z" transform="translate(-210.72 -339.977)" fill="#e6e6e6"/>
    <path id="Path_54" data-name="Path 54" d="M319.3,533.39a22.838,22.838,0,0,0-7.987-8.14c-.162-.092-.325-.178-.487-.263.077,1.31.477,9,0,19.7Z" transform="translate(-212.43 -329.315)" fill="#e6e6e6"/>
    <path id="Path_55" data-name="Path 55" d="M294.022,647.5q-.536,1.764-1.111,3.464l21.62-13.332.038.322q.62-3.011,1.01-6.017l-21.534,15.709Z" transform="translate(-202.527 -388.443)" fill="#e6e6e6"/>
    <path id="Path_56" data-name="Path 56" d="M301.671,602.472l19.367-16.711.063.3a68.149,68.149,0,0,0-2.048-15.958l-14.784,17.148Q303.252,595.23,301.671,602.472Z" transform="translate(-207.37 -354.259)" fill="#e6e6e6"/>
    <path id="Path_57" data-name="Path 57" d="M317.885,606.584,298.257,623.52q-1.082,4.823-2.41,9.281L317.2,617.224l.05.314A81.388,81.388,0,0,0,317.885,606.584Z" transform="translate(-204.15 -374.424)" fill="#e6e6e6"/>
    <path id="Path_58" data-name="Path 58" d="M190.865,624.792q.026-.4.049-.814a67.737,67.737,0,0,0,8.885-13.623l-11.855-14.773q-.233-.756-.488-1.508L200.076,609.8a97.866,97.866,0,0,0,4.517-10.828L179.637,573.9q.117-.3.237-.6L204.8,598.334l.021-.013a132.128,132.128,0,0,0,3.865-13.686l-24.751-24.5q.078-.341.154-.686l24.751,24.5q.343-1.539.649-3.061L184.81,555.762q.062-.36.12-.722l24.7,25.148c.83-4.207,1.46-8.276,1.938-12.064L187.372,542.31l.12-.3c-.573.835-1.13,1.711-1.673,2.618a49.88,49.88,0,0,0-.7-8.562l-9.27,23.25a74.845,74.845,0,0,1,1.607,9.734c-.056.554-.107,1.112-.147,1.674l.3.306q.029.448.052.894l-.405-.407c-.019.326-.034.655-.048.984a70.487,70.487,0,0,0-1.809-13.125l-34.99-7.2c1.763,1.809,3.61,3.567,5.5,5.263a42.776,42.776,0,0,0-11.3-1.932l.273.053,5.165,13.631c3.947,2.777,8.283,6.014,12.7,9.642l-6.358-20.968q.353.314.708.626l6.342,20.914q6.191,5.128,11.462,10.34l-2.915-19.683.61.424,2.946,19.9q3.5,3.5,6.55,7l-1.413-21.579.59.368,1.428,21.807-.136-.059q1.2,1.4,2.332,2.793l.273-22.187.583.34-.278,22.571c.231.29.465.581.691.871a97.277,97.277,0,0,1,6.061,8.676l.132-2.019q.243.9.487,1.765l-.075,1.148c.271.451.535.9.794,1.353q.3,1.031.6,2.005-.862-1.6-1.8-3.164l-35.5,3.969c18.666,9.819,41.83,14.474,43.306,14.764-.35-1.549-.776-3.084-1.266-4.6.127-.133.253-.268.379-.4.06.182.123.363.181.545-.066.07-.131.143-.2.213l.229-.109q.512,1.6.917,3.2c.108-.863.253-2.173.379-3.831,6.393-3.2,22.952-12.554,31.358-27.219l-21.969,11.994A68.409,68.409,0,0,1,190.865,624.792Zm-7.279-34.642.054-.833.557.694-.054.833Z" transform="translate(-115.012 -335.439)" fill="#e6e6e6"/>
    <path id="Path_59" data-name="Path 59" d="M291.69,522.821l.194-.092c-4.85-2.454-10.033-2.063-14.949.644l14.768,19.15C292.218,530.95,291.7,522.936,291.69,522.821Z" transform="translate(-193.695 -327.164)" fill="#e6e6e6"/>
    <path id="Path_60" data-name="Path 60" d="M286.37,660.822a97.269,97.269,0,0,1-4.083,9.764l21.761-11.881.029.316A38.557,38.557,0,0,0,307.738,650q.483-1.858.875-3.723l-21.877,13.491C286.614,660.123,286.494,660.475,286.37,660.822Z" transform="translate(-196.654 -396.37)" fill="#e6e6e6"/>
    <path id="Path_61" data-name="Path 61" d="M278.571,546.367l-15.107-19.589.131-.287a32.824,32.824,0,0,0-10.343,9.98l24,25.6C277.935,556.464,278.341,551.132,278.571,546.367Z" transform="translate(-180.603 -330.146)" fill="#e6e6e6"/>
    <path id="Path_62" data-name="Path 62" d="M119.648,579.529a22.839,22.839,0,0,0-11.151,2.389c-.164.088-.324.179-.483.271,1.148.636,7.858,4.416,16.637,10.545Z" transform="translate(-100.31 -359.465)" fill="#e6e6e6"/>
    <path id="Path_63" data-name="Path 63" d="M132.518,633.268l-34.755,6.616-.19-.262a56.9,56.9,0,0,0,5.615,10l38.482-8.261C138.562,638.411,135.462,635.7,132.518,633.268Z" transform="translate(-94.538 -389.176)" fill="#e6e6e6"/>
    <path id="Path_64" data-name="Path 64" d="M151.6,654.664q-1.117-1.114-2.238-2.187l-38.624,8.291-.193-.261q1.164,1.659,2.478,3.314l-.2-.26Z" transform="translate(-101.706 -399.795)" fill="#e6e6e6"/>
    <path id="Path_65" data-name="Path 65" d="M185.61,692.979a97.873,97.873,0,0,0-6.727-9.612l-37.819,8.387a78.766,78.766,0,0,0,8.981,5.518l-.2-.3Z" transform="translate(-118.58 -416.873)" fill="#e6e6e6"/>
    <path id="Path_66" data-name="Path 66" d="M98.318,585.954l.026-.213c-4.669,2.783-7.114,7.37-7.459,12.971l24.08-2.222C105.466,589.86,98.419,586.009,98.318,585.954Z" transform="translate(-90.841 -362.902)" fill="#e6e6e6"/>
    <path id="Path_67" data-name="Path 67" d="M115.618,610.886l-24.633,2.273-.172-.264A32.822,32.822,0,0,0,93.7,626.973l34.472-6.562C123.8,616.828,119.519,613.63,115.618,610.886Z" transform="translate(-90.786 -376.802)" fill="#e6e6e6"/>
    <path id="Path_68" data-name="Path 68" d="M164.9,669.071a132.115,132.115,0,0,0-9.49-10.591L116.54,667.4q1.79,2.235,3.848,4.443a47.345,47.345,0,0,0,6.474,5.688L164.9,669.1Z" transform="translate(-105.023 -403.114)" fill="#e6e6e6"/>
    <path id="Path_69" data-name="Path 69" d="M164.319,449.569c2.9,3.861,6.018,8.28,9.1,13.1l.44-22.214.243.155a43.357,43.357,0,0,0-10.725-5.733l.243.135Z" transform="translate(-130.917 -279.497)" fill="#007af3"/>
    <path id="Path_70" data-name="Path 70" d="M148.137,432.885a22.839,22.839,0,0,0-11.343-1.175c-.183.033-.363.07-.543.108.895.96,6.108,6.628,12.562,15.171Z" transform="translate(-115.921 -277.594)" fill="#007af3"/>
    <path id="Path_71" data-name="Path 71" d="M214.781,519.5q.712,1.7,1.354,3.377l8.148-24.057.234.224q-1.443-2.714-3.06-5.278L214.892,519.6Z" transform="translate(-159.334 -312.056)" fill="#007af3"/>
    <path id="Path_72" data-name="Path 72" d="M194.616,484.11l4.258-25.222.242.193A68.157,68.157,0,0,0,187.36,448.1l-.449,22.637Q191.214,477.523,194.616,484.11Z" transform="translate(-143.927 -286.807)" fill="#007af3"/>
    <path id="Path_73" data-name="Path 73" d="M107.257,488.34l-.1-.308a56.911,56.911,0,0,0,2.249,11.248l39.151,4.038c-2.044-3.769-4.154-7.305-6.2-10.528Z" transform="translate(-99.836 -308.885)" fill="#007af3"/>
    <path id="Path_74" data-name="Path 74" d="M112.5,514.182l-.1-.308q.594,1.937,1.332,3.918l-.105-.307,39.625,3.522q-.718-1.4-1.452-2.772Z" transform="translate(-102.731 -323.171)" fill="#007af3"/>
    <path id="Path_75" data-name="Path 75" d="M209.13,507.511l6.511-25.618.238.21a81.39,81.39,0,0,0-6.5-8.841l-4.315,25.564Q207.309,503.23,209.13,507.511Z" transform="translate(-153.963 -300.72)" fill="#007af3"/>
    <path id="Path_76" data-name="Path 76" d="M170.187,557.158l-38.56-3.713a78.734,78.734,0,0,0,6.835,8.024l-.1-.341,35.247,7.251A97.9,97.9,0,0,0,170.187,557.158Z" transform="translate(-113.364 -345.047)" fill="#007af3"/>
    <path id="Path_77" data-name="Path 77" d="M121.926,432.6l.091-.195c-5.3,1.2-9.043,4.81-11.1,10.03l23.588,5.33C127.517,438.526,122.006,432.686,121.926,432.6Z" transform="translate(-101.913 -278.134)" fill="#007af3"/>
    <path id="Path_78" data-name="Path 78" d="M218.927,531.756a97.272,97.272,0,0,1,3.083,10.124l9.182-23.03.224.225a38.56,38.56,0,0,0-2.932-9.28q-.813-1.739-1.7-3.426l-8.245,24.344C218.669,531.061,218.8,531.41,218.927,531.756Z" transform="translate(-161.412 -319.023)" fill="#007af3"/>
    <path id="Path_79" data-name="Path 79" d="M141.723,474.122c-3.051-4.759-6.139-9.125-9-12.94l-24.129-5.452-.082-.3a32.822,32.822,0,0,0-1.6,14.283Z" transform="translate(-99.614 -290.858)" fill="#007af3"/>
    <path id="Path_80" data-name="Path 80" d="M122.314,536.154l38.78,3.734.008-.023a132.091,132.091,0,0,0-5.752-13.006l-39.722-3.531q1.012,2.679,2.287,5.415a47.341,47.341,0,0,0,4.4,7.41Z" transform="translate(-104.52 -328.398)" fill="#007af3"/>
    <path id="Path_81" data-name="Path 81" d="M322.239,555.255l.088.274a43.359,43.359,0,0,0-4.6-11.256l.1.259-8.749,11.66c-.233,4.82-.646,10.216-1.343,15.891Z" transform="translate(-210.72 -339.977)" fill="#007af3"/>
    <path id="Path_82" data-name="Path 82" d="M319.3,533.39a22.838,22.838,0,0,0-7.987-8.14c-.162-.092-.325-.178-.487-.263.077,1.31.477,9,0,19.7Z" transform="translate(-212.43 -329.315)" fill="#007af3"/>
    <path id="Path_83" data-name="Path 83" d="M294.022,647.5q-.536,1.764-1.111,3.464l21.62-13.332.038.322q.62-3.011,1.01-6.017l-21.534,15.709Z" transform="translate(-202.527 -388.443)" fill="#007af3"/>
    <path id="Path_84" data-name="Path 84" d="M301.671,602.472l19.367-16.711.063.3a68.149,68.149,0,0,0-2.048-15.958l-14.784,17.148Q303.252,595.23,301.671,602.472Z" transform="translate(-207.37 -354.259)" fill="#007af3"/>
    <path id="Path_85" data-name="Path 85" d="M317.885,606.584,298.257,623.52q-1.082,4.823-2.41,9.281L317.2,617.224l.05.314A81.388,81.388,0,0,0,317.885,606.584Z" transform="translate(-204.15 -374.424)" fill="#007af3"/>
    <path id="Path_86" data-name="Path 86" d="M190.865,624.792q.026-.4.049-.814a67.737,67.737,0,0,0,8.885-13.623l-11.855-14.773q-.233-.756-.488-1.508L200.076,609.8a97.866,97.866,0,0,0,4.517-10.828L179.637,573.9q.117-.3.237-.6L204.8,598.334l.021-.013a132.128,132.128,0,0,0,3.865-13.686l-24.751-24.5q.078-.341.154-.686l24.751,24.5q.343-1.539.649-3.061L184.81,555.762q.062-.36.12-.722l24.7,25.148c.83-4.207,1.46-8.276,1.938-12.064L187.372,542.31l.12-.3c-.573.835-1.13,1.711-1.673,2.618a49.88,49.88,0,0,0-.7-8.562l-9.27,23.25a74.845,74.845,0,0,1,1.607,9.734c-.056.554-.107,1.112-.147,1.674l.3.306q.029.448.052.894l-.405-.407c-.019.326-.034.655-.048.984a70.487,70.487,0,0,0-1.809-13.125l-34.99-7.2c1.763,1.809,3.61,3.567,5.5,5.263a42.776,42.776,0,0,0-11.3-1.932l.273.053,5.165,13.631c3.947,2.777,8.283,6.014,12.7,9.642l-6.358-20.968q.353.314.708.626l6.342,20.914q6.191,5.128,11.462,10.34l-2.915-19.683.61.424,2.946,19.9q3.5,3.5,6.55,7l-1.413-21.579.59.368,1.428,21.807-.136-.059q1.2,1.4,2.332,2.793l.273-22.187.583.34-.278,22.571c.231.29.465.581.691.871a97.277,97.277,0,0,1,6.061,8.676l.132-2.019q.243.9.487,1.765l-.075,1.148c.271.451.535.9.794,1.353q.3,1.031.6,2.005-.862-1.6-1.8-3.164l-35.5,3.969c18.666,9.819,41.83,14.474,43.306,14.764-.35-1.549-.776-3.084-1.266-4.6.127-.133.253-.268.379-.4.06.182.123.363.181.545-.066.07-.131.143-.2.213l.229-.109q.512,1.6.917,3.2c.108-.863.253-2.173.379-3.831,6.393-3.2,22.952-12.554,31.358-27.219l-21.969,11.994A68.409,68.409,0,0,1,190.865,624.792Zm-7.279-34.642.054-.833.557.694-.054.833Z" transform="translate(-115.012 -335.439)" fill="#007af3"/>
    <path id="Path_87" data-name="Path 87" d="M291.69,522.821l.194-.092c-4.85-2.454-10.033-2.063-14.949.644l14.768,19.15C292.218,530.95,291.7,522.936,291.69,522.821Z" transform="translate(-193.695 -327.164)" fill="#007af3"/>
    <path id="Path_88" data-name="Path 88" d="M286.37,660.822a97.269,97.269,0,0,1-4.083,9.764l21.761-11.881.029.316A38.557,38.557,0,0,0,307.738,650q.483-1.858.875-3.723l-21.877,13.491C286.614,660.123,286.494,660.475,286.37,660.822Z" transform="translate(-196.654 -396.37)" fill="#007af3"/>
    <path id="Path_89" data-name="Path 89" d="M278.571,546.367l-15.107-19.589.131-.287a32.824,32.824,0,0,0-10.343,9.98l24,25.6C277.935,556.464,278.341,551.132,278.571,546.367Z" transform="translate(-180.603 -330.146)" fill="#007af3"/>
    <path id="Path_90" data-name="Path 90" d="M119.648,579.529a22.839,22.839,0,0,0-11.151,2.389c-.164.088-.324.179-.483.271,1.148.636,7.858,4.416,16.637,10.545Z" transform="translate(-100.31 -359.465)" fill="#007af3"/>
    <path id="Path_91" data-name="Path 91" d="M132.518,633.268l-34.755,6.616-.19-.262a56.9,56.9,0,0,0,5.615,10l38.482-8.261C138.562,638.411,135.462,635.7,132.518,633.268Z" transform="translate(-94.538 -389.176)" fill="#007af3"/>
    <path id="Path_92" data-name="Path 92" d="M151.6,654.664q-1.117-1.114-2.238-2.187l-38.624,8.291-.193-.261q1.164,1.659,2.478,3.314l-.2-.26Z" transform="translate(-101.706 -399.795)" fill="#007af3"/>
    <path id="Path_93" data-name="Path 93" d="M185.61,692.979a97.873,97.873,0,0,0-6.727-9.612l-37.819,8.387a78.766,78.766,0,0,0,8.981,5.518l-.2-.3Z" transform="translate(-118.58 -416.873)" fill="#007af3"/>
    <path id="Path_94" data-name="Path 94" d="M98.318,585.954l.026-.213c-4.669,2.783-7.114,7.37-7.459,12.971l24.08-2.222C105.466,589.86,98.419,586.009,98.318,585.954Z" transform="translate(-90.841 -362.902)" fill="#007af3"/>
    <path id="Path_95" data-name="Path 95" d="M115.618,610.886l-24.633,2.273-.172-.264A32.822,32.822,0,0,0,93.7,626.973l34.472-6.562C123.8,616.828,119.519,613.63,115.618,610.886Z" transform="translate(-90.786 -376.802)" fill="#007af3"/>
    <path id="Path_96" data-name="Path 96" d="M164.9,669.071a132.115,132.115,0,0,0-9.49-10.591L116.54,667.4q1.79,2.235,3.848,4.443a47.345,47.345,0,0,0,6.474,5.688L164.9,669.1Z" transform="translate(-105.023 -403.114)" fill="#007af3"/>
    <rect id="Rectangle_11" data-name="Rectangle 11" width="6.708" height="49.188" transform="translate(214.317 185.575)" fill="#3f3d56"/>
    <rect id="Rectangle_12" data-name="Rectangle 12" width="6.708" height="49.188" transform="translate(293.466 185.575)" fill="#3f3d56"/>
    <rect id="Rectangle_13" data-name="Rectangle 13" width="244.154" height="11.179" transform="translate(135.168 177.973)" fill="#e6e6e6"/>
    <rect id="Rectangle_14" data-name="Rectangle 14" width="244.154" height="11.179" transform="translate(135.168 213.299)" fill="#e6e6e6"/>
    <rect id="Rectangle_15" data-name="Rectangle 15" width="244.154" height="6.708" transform="translate(135.168 192.729)" fill="#e6e6e6"/>
    <rect id="Rectangle_16" data-name="Rectangle 16" width="244.154" height="6.708" transform="translate(135.168 203.014)" fill="#e6e6e6"/>
    <rect id="Rectangle_17" data-name="Rectangle 17" width="7.602" height="59.026" transform="translate(134.497 175.961)" fill="#3f3d56"/>
    <rect id="Rectangle_18" data-name="Rectangle 18" width="7.602" height="59.026" transform="translate(371.72 175.737)" fill="#3f3d56"/>
    <rect id="Rectangle_19" data-name="Rectangle 19" width="7.602" height="61.262" transform="translate(113.704 250.414)" fill="#3f3d56"/>
    <rect id="Rectangle_20" data-name="Rectangle 20" width="7.602" height="32.643" transform="translate(138.746 248.178)" fill="#3f3d56"/>
    <rect id="Rectangle_21" data-name="Rectangle 21" width="7.602" height="32.643" transform="translate(369.931 248.178)" fill="#3f3d56"/>
    <rect id="Rectangle_22" data-name="Rectangle 22" width="7.602" height="61.262" transform="translate(391.395 250.414)" fill="#3f3d56"/>
    <rect id="Rectangle_23" data-name="Rectangle 23" width="285.293" height="8.049" transform="translate(113.704 250.414)" fill="#3f3d56"/>
    <path id="Path_97" data-name="Path 97" d="M274.846,520l-20.57,17.887H539.569L519.894,520Z" transform="translate(-140.572 -287.473)" fill="#e6e6e6"/>
    <path id="Path_98" data-name="Path 98" d="M248.61,110.361l-.058-.322-5.5-2.916h-.864l-.33-.633H230.508l-2.631.633h-9.689l-2.625,3.063-.027.188c-.17,1.1-3.966,26.857,6.05,35.053l4.177,1.941h2.7l-.528-1.054,2.348,1.054h7.6l.135-.2,4.511-1.689.116-.134C243.056,144.86,252.643,133.211,248.61,110.361Z" transform="translate(-159.285 -97.956)" fill="#007af3" opacity="0.1"/>
    <rect id="Rectangle_24" data-name="Rectangle 24" width="4.472" height="11.626" transform="translate(71.223 38.009)" fill="#e6e6e6"/>
    <rect id="Rectangle_25" data-name="Rectangle 25" width="8.049" height="223.584" transform="translate(69.211 64.616)" fill="#3f3d56"/>
    <rect id="Rectangle_26" data-name="Rectangle 26" width="12.074" height="7.602" transform="translate(67.199 60.815)" fill="#3f3d56"/>
    <path id="Path_99" data-name="Path 99" d="M140.276,105l7.6,8.049-3.13,5.813,6.26,1.341,5.813-1.341-3.577-6.26L160.4,105Z" transform="translate(-77.549 -58.047)" fill="#3f3d56"/>
    <path id="Path_100" data-name="Path 100" d="M213.639,107.666l-3.577-3.577,2.683-2.683H246.73l2.683,3.13-4.025,3.13S223.924,106.772,213.639,107.666Z" transform="translate(-156.725 -95.146)" fill="#3f3d56"/>
    <path id="Path_101" data-name="Path 101" d="M248.61,108.374l-.058-.322-5.5-2.916-2.513-1.333-14.108-.908-7.91,1.86-.326.38-2.625,3.063-.027.188c-.17,1.1-3.966,26.857,6.05,35.054l4.177,1.941,3.515,1.632-.814-1.632-1.337-2.67c-1.4-8.147-4.476-29.553-2.513-34.025l8.112-2.616,7.2,2.674c.5,3.215,3.707,25.757-1.918,33.792l-.121.174v2.518l4.646-1.74.116-.134C243.056,142.873,252.643,131.224,248.61,108.374Zm-6.886,33.985-2.5.939v-.17c6.171-9.207,2.137-33.931,1.963-34.986l-.063-.385-7.056-2.62-1.31-.487-1.511.487-7.566,2.442-.13.228c-2.875,5.156,2.057,34,2.267,35.228l.018.1.532,1.064-4-1.847c-8.921-7.427-5.862-31.212-5.536-33.569l2.415-2.817,3.515-.827,3.779-.89,6.22.4,7.4.478.018.009,7.168,3.792c3.55,20.726-4.6,32.107-5.621,33.43Z" transform="translate(-159.285 -95.969)" fill="#3f3d56"/>
    <ellipse id="Ellipse_6" data-name="Ellipse 6" cx="12.074" cy="6.26" rx="12.074" ry="6.26" transform="translate(61.385)" fill="#3f3d56"/>
    <path id="Path_102" data-name="Path 102" d="M232.217,706.406l-7.155,22.806s11.179,6.26,26.383,0l-7.155-22.806Z" transform="translate(-165.018 -429.609)" fill="#3f3d56"/>
    <circle id="Ellipse_7" data-name="Ellipse 7" cx="3.577" cy="3.577" r="3.577" transform="translate(69.882 32.196)" fill="#007af3"/>
    <path id="Path_103" data-name="Path 103" d="M521.735,436.077A15.133,15.133,0,0,1,525.877,434a105.626,105.626,0,0,1,29.186-6.353c8.678-.615,18.084.116,24.862,5.57a8.549,8.549,0,0,1,2.522,2.938c.853,1.84.594,3.979.318,5.989a6.765,6.765,0,0,1-.581,2.254c-.912,1.737-3.158,2.345-5.108,2.137s-3.781-1.034-5.7-1.416a25.484,25.484,0,0,0-3.6-.367L555.7,444.1c-7.5-.406-15.106-.806-22.466.709a22.38,22.38,0,0,0-6.491,2.237c-1.681.944-2.813,2.3-4.373.555C519.632,444.536,518.115,438.906,521.735,436.077Z" transform="translate(-327.849 -275.401)" fill="#2f2e41"/>
    <path id="Path_104" data-name="Path 104" d="M562.036,455.041s16.23-7.276,22.386,1.119-3.358,5.037-3.358,5.037l-10.634,3.358-11.753-2.239Z" transform="translate(-349.451 -289.029)" fill="#f2f2f2"/>
    <path id="Path_105" data-name="Path 105" d="M568.065,440.541s2.239,10.633.56,13.432,9.514,6.716,9.514,6.716l10.634-4.477s-2.8-17.349,0-20.707Z" transform="translate(-354.641 -279.846)" fill="#ffb9b9"/>
    <path id="Path_106" data-name="Path 106" d="M568.065,440.541s2.239,10.633.56,13.432,9.514,6.716,9.514,6.716l10.634-4.477s-2.8-17.349,0-20.707Z" transform="translate(-354.641 -279.846)" opacity="0.1"/>
    <path id="Path_107" data-name="Path 107" d="M537.216,718.626a61.212,61.212,0,0,1,3.7,9.692.789.789,0,0,0,.98.651l9.955-.011c1.229,0,2.877-.4,2.864-1.624-.009-.863-.891-1.4-1.548-1.962-1.822-1.555-2.3-4.119-3.051-6.392a21.686,21.686,0,0,0-8.069-10.838,4.722,4.722,0,0,0-1.725-.853,4.812,4.812,0,0,0-1.891.1c-1.747.353-8.273,1.559-7.04,4.1.531,1.094,2.5,2.234,3.323,3.256A23.383,23.383,0,0,1,537.216,718.626Z" transform="translate(-334.279 -430.07)" fill="#575a89"/>
    <path id="Path_108" data-name="Path 108" d="M613,699.864a22.68,22.68,0,0,1-1.17,2.151c-1.442,2.378-3.144,4.6-4.487,7.033a11.609,11.609,0,0,0-1.635,4.894,5.436,5.436,0,0,0,1.9,4.626,6.982,6.982,0,0,0,5.222.892,25.256,25.256,0,0,1,5.391-.635c-.61-3.451,2.3-6.489,3.029-9.917.2-.963.235-1.962.509-2.907a14.241,14.241,0,0,1,1.127-2.491,32.213,32.213,0,0,0,3.04-8.966c.069-.379-8.849-.441-9.685-.26C613.627,694.849,614.009,697.7,613,699.864Z" transform="translate(-375.445 -422.854)" fill="#575a89"/>
    <path id="Path_109" data-name="Path 109" d="M466.2,572.137c-2.546,3.984-1.959,9.263-.171,13.64s4.634,8.246,6.581,12.554c1.242,2.746,2.112,5.658,3.511,8.328,1.732,3.306,4.259,6.221,5.421,9.767.741,2.261.911,4.739,2.11,6.793a20.813,20.813,0,0,0,2.472,3.067,28.338,28.338,0,0,1,5.7,10.176c1.1-3.266,4.38-5.408,7.752-6.115s6.867-.226,10.278.255a43.212,43.212,0,0,1-4.959-9.255c-1.1-3.212-1.421-6.628-2.16-9.941-1.516-6.793-4.753-13.058-7.958-19.236l16.475-1.307a64.261,64.261,0,0,1,8.094-.3c4.252.2,8.418,1.243,12.648,1.725s8.7.356,12.474-1.623a59.773,59.773,0,0,0-10.725,35.3,13.667,13.667,0,0,1,20.689,4.882c6.456-8.823,5.689-21.105,10.8-30.767,1.052-1.987,2.341-3.837,3.477-5.778a85.151,85.151,0,0,0,5.493-12.139c1.431-3.66,2.873-7.733,1.5-11.415a11.923,11.923,0,0,0-2.446-3.761c-2.952-3.254-7.06-5.662-11.453-5.762-6.743-.154-12.313,4.844-18.228,8.085a41.947,41.947,0,0,1-23.019,4.774c-8.125-.575-15.884-3.235-23.625-5.577a112.413,112.413,0,0,0-11.79-3.042c-3.32-.623-6.481.067-9.752.916C471.83,567.309,468.251,568.929,466.2,572.137Z" transform="translate(-297.38 -349.348)" fill="#2f2e41"/>
    <path id="Path_110" data-name="Path 110" d="M584.123,402.23a16.8,16.8,0,0,1-16.79,16.79,16.385,16.385,0,0,1-2.983-.269,16.789,16.789,0,1,1,19.773-16.521Z" transform="translate(-344.954 -252.169)" fill="#ffb9b9"/>
    <path id="Path_111" data-name="Path 111" d="M543.7,458.312a19.732,19.732,0,0,1,4.2,2.518c1.119,1.119,4.477,7.276,10.074,3.358s6.156-6.156,7.835-6.156,3.918,3.358,3.918,3.358l15.391,46.172a64.458,64.458,0,0,1-14.271,12.033c-8.954,5.6-19.588,8.395-24.625,6.156s-14.551-3.918-16.23-8.395-4.477-17.909-4.477-17.909l7.835-34.139Z" transform="translate(-331.116 -292.3)" fill="#f2f2f2"/>
    <path id="Path_112" data-name="Path 112" d="M530.838,500.669c1.22-2.635,1.4-5.619,1.5-8.521a51.671,51.671,0,0,0-.228-8.62c-.5-3.744-1.715-7.35-2.485-11.047a46.711,46.711,0,0,1-.979-9.86,8.035,8.035,0,0,1,.944-4.369,13.941,13.941,0,0,0,1.832-2.56c.7-1.944-1.035-3.979-2.941-4.779a11.573,11.573,0,0,0-7.245-.291,34.474,34.474,0,0,0-6.815,2.788,15.6,15.6,0,0,0-4.453,2.878c-1.737,1.8-2.5,4.3-3.118,6.724a13.772,13.772,0,0,0-.557,5.926c.61,3.191,3.212,5.592,4.6,8.53,1.61,3.412,1.5,7.388.861,11.107s-1.778,7.354-2.128,11.111.188,7.8,2.541,10.744c.959,1.2,3.561,4.05,5.317,3.728,1.379-.253,3.379-3.29,4.49-4.252C525.186,507.124,529,504.651,530.838,500.669Z" transform="translate(-320.415 -287.961)" fill="#2f2e41"/>
    <path id="Path_113" data-name="Path 113" d="M615.749,447.351c.049,3.121-1.327,6.088-2.945,8.758s-3.519,5.195-4.711,8.08a18.52,18.52,0,0,0-.864,11.393,36.761,36.761,0,0,0,1.235,3.812l3.066,8.411a14.6,14.6,0,0,0,1.778,3.733,12.055,12.055,0,0,0,2.417,2.325,22.553,22.553,0,0,0,7.885,4.113,13.335,13.335,0,0,0,8.768-.5,126.875,126.875,0,0,1,5.446-33.625c.613-2.014,1.283-4.135.81-6.187-.53-2.3-2.376-4.024-4.131-5.6-5.367-4.82-11.269-9.882-18.453-10.532C611.892,441.155,615.714,445.094,615.749,447.351Z" transform="translate(-376.004 -283.164)" fill="#2f2e41"/>
    <path id="Path_114" data-name="Path 114" d="M537.035,588.922c.426.833.691,1.741,1.112,2.576a14.394,14.394,0,0,0,2.284,3.071c3.742,4.149,8.316,8.283,13.9,8.533a3.814,3.814,0,0,0,1.638-.206,3.247,3.247,0,0,0,1.743-2.493c.4-2.167-.561-4.33-1.519-6.314-2.076-4.3-4.412-8.709-8.3-11.483a15.572,15.572,0,0,0-13.435-2.021c-2.025.624-5.382,1.713-2.7,3.56C533.789,585.547,535.856,586.614,537.035,588.922Z" transform="translate(-334.016 -359.667)" fill="#ffb9b9"/>
    <path id="Path_115" data-name="Path 115" d="M575.238,468.867a12.512,12.512,0,0,0-2.627-4.235A9.743,9.743,0,0,0,568.6,462.6a21.937,21.937,0,0,0-5.885-.844c-2.37-.015-5.118.621-6.125,2.767-.8,1.7-.18,3.722.625,5.423a5.319,5.319,0,0,0,1.659,2.241c1.022.691,2.344.669,3.556.9a16.4,16.4,0,0,1,5.255,2.382l4.151,2.509,7.131,4.31c-.188-.113-.121-5-.34-5.8C577.921,473.9,576.333,471.312,575.238,468.867Z" transform="translate(-348.091 -294.359)" fill="#ffb9b9"/>
    <path id="Path_116" data-name="Path 116" d="M538.251,749.043c-1.669,2.267-1.334,5.509-2.812,7.9-1.281,2.077-3.7,3.166-5.3,5.006a13.412,13.412,0,0,0-1.362,1.959c-1.487,2.49-2.695,5.681-1.231,8.184,1.178,2.014,3.653,2.8,5.924,3.337a21.734,21.734,0,0,0,8.754.7c2.9-.518,5.74-2.3,6.774-5.056a19.569,19.569,0,0,1,.725-2.044c1.573-3.1,6.508-3.131,8.118-6.209,1.127-2.154.091-4.758-.944-6.958l-3.162-6.718c-1.049-2.229-5.3-.947-7.521-1.482C543.322,746.973,540.332,746.206,538.251,749.043Z" transform="translate(-331.876 -452.063)" fill="#2f2e41"/>
    <path id="Path_117" data-name="Path 117" d="M599.9,737.184a8.994,8.994,0,0,0-2.861,3.92c-1.565,3.611-2.1,7.569-2.624,11.469a13.89,13.89,0,0,0-.09,4.7c.674,3.185,3.561,5.531,6.668,6.505s6.439.824,9.691.664a6.938,6.938,0,0,0,3.046-.619,4.723,4.723,0,0,0,1.993-4.865,13.844,13.844,0,0,0-2.275-5.071,13.886,13.886,0,0,1-2.278-5.07c-.476-3.1.866-7.659-1.04-10.466S602.447,735.4,599.9,737.184Z" transform="translate(-369.062 -445.975)" fill="#2f2e41"/>
    <path id="Path_118" data-name="Path 118" d="M576.975,382.682a4.262,4.262,0,0,0-1.848-2.413,9.787,9.787,0,0,0-.39-3.184c-1.017-3.006-3.425-2.834-5.7-4.163-.986-.577-.925-1.086-1.439-2.033a7.545,7.545,0,0,0-2.908-2.967,10.463,10.463,0,0,0-4.722-2c-3.625-.247-6.4,3.162-9.869,4.257-1.527.482-3.168.5-4.7.958s-3.067,1.545-3.3,3.13c-.106.732.081,1.483-.026,2.214-.213,1.454-1.489,2.472-2.343,3.668-1.888,2.645-1.672,6.381-.162,9.258a13.011,13.011,0,0,0,1.089,1.7A10.482,10.482,0,0,0,541.81,395a19.4,19.4,0,0,0,6.823,6.814,16.09,16.09,0,0,1-.4-2.906,2,2,0,0,1,.123-.963c.3-.632,1.1-.8,1.71-1.146a4.323,4.323,0,0,0,1.793-3.754c.036-1.451-.271-2.9-.119-4.346a2.375,2.375,0,0,1,.813-1.747,2.808,2.808,0,0,1,1.533-.365c2.585-.105,5.285-.153,7.565-1.375A11.206,11.206,0,0,1,564,384.021c1.937-.505,3.918.853,5.034,2.515s1.673,3.64,2.7,5.357,2.81,3.248,4.8,3.045a.8.8,0,0,0,.595-.265.891.891,0,0,0,.11-.507l.111-7.614a11.5,11.5,0,0,0-.384-3.87Z" transform="translate(-338.229 -241.37)" fill="#2f2e41"/>
    <path id="Path_119" data-name="Path 119" d="M492.717,483.767c-1.6,2.363-3.449,4.636-4.33,7.351-.518,1.6-.678,3.284-1.053,4.919-1.248,5.448-4.854,10.288-5.216,15.865a7.544,7.544,0,0,0,.53,3.643c1.034,2.25,3.51,3.436,5.871,4.181s4.9,1.283,6.782,2.889a20.772,20.772,0,0,1,2.57,2.979,24.892,24.892,0,0,0,11.89,8.135c-.37-2.547-.543-5.616,1.493-7.19a7.372,7.372,0,0,1,3.962-1.124l6.557-.567a84.253,84.253,0,0,0-14.375-11.2c-1.813-1.12-3.787-2.3-4.615-4.266a10.3,10.3,0,0,1-.523-3.935,96.987,96.987,0,0,0-1.235-14.558c-.54-3.343-1.255-6.656-2.072-9.943-.23-.923-1.586-5.061-3.256-4.093-.393.228-.761,2.853-.991,3.4A20.61,20.61,0,0,1,492.717,483.767Z" transform="translate(-307.105 -302.627)" fill="#2f2e41"/>
    <path id="Path_120" data-name="Path 120" d="M628.563,470.936l2.678,5.569a13.383,13.383,0,0,1,1.688,7.531l.159,16.706a24.326,24.326,0,0,1-.549,6.652,5.325,5.325,0,0,1-.924,1.986,6.2,6.2,0,0,1-1.584,1.276c-5.068,3.167-11.64,4.966-16.995,2.313a23.524,23.524,0,0,1-3.484-2.275,27.686,27.686,0,0,1-5.9-5.314c-1.671-2.221-2.629-4.88-3.753-7.422a57.037,57.037,0,0,0-7.753-12.717,3.353,3.353,0,0,1-.96-1.9c-.033-1.464,1.7-2.185,3.059-2.742,2.314-.952,4.5-2.788,4.884-5.261,4.921,6.453,10.352,13.272,18.117,15.63a.8.8,0,0,0,1.233-.685c.441-1.844.6-3.744.919-5.612a31.965,31.965,0,0,1,3.373-9.726C623.694,473.241,626.673,467.005,628.563,470.936Z" transform="translate(-367.425 -298.727)" fill="#2f2e41"/>
    <path id="Path_121" data-name="Path 121" d="M521.878,508.533a25.689,25.689,0,0,1-2.454,11.446,9.459,9.459,0,0,0-.961,2.521c-.294,1.882.777,3.7,2,5.162a21.227,21.227,0,0,0,9.076,6.314" transform="translate(-327.192 -320.219)" opacity="0.1"/>
    <path id="Path_122" data-name="Path 122" d="M653.021,501.081a5.473,5.473,0,0,0,.268,3.325,33.506,33.506,0,0,1,1.221,9.721.354.354,0,0,1-.414.424c-1.292.079-2.771.087-3.647-.865" transform="translate(-400.185 -316.099)" opacity="0.1"/>
    <rect id="Rectangle_27" data-name="Rectangle 27" width="159.775" height="31.545" transform="translate(295.634 57.014)" fill="#e6e6e6"/>
    <rect id="Rectangle_28" data-name="Rectangle 28" width="159.775" height="31.545" transform="translate(295.634 93.885)" fill="#e6e6e6"/>
    <circle id="Ellipse_8" data-name="Ellipse 8" cx="9.423" cy="9.423" r="9.423" transform="translate(303.007 63.159)" fill="#007af3"/>
    <rect id="Rectangle_29" data-name="Rectangle 29" width="92.998" height="2.048" transform="translate(334.963 68.895)" fill="#007af3"/>
    <rect id="Rectangle_30" data-name="Rectangle 30" width="92.998" height="2.048" transform="translate(334.963 74.22)" fill="#007af3"/>
    <circle id="Ellipse_9" data-name="Ellipse 9" cx="9.423" cy="9.423" r="9.423" transform="translate(303.007 100.44)" fill="#ccc"/>
    <rect id="Rectangle_31" data-name="Rectangle 31" width="92.998" height="2.048" transform="translate(334.963 106.176)" fill="#ccc"/>
    <rect id="Rectangle_32" data-name="Rectangle 32" width="92.998" height="2.048" transform="translate(334.963 111.501)" fill="#ccc"/>
    <rect id="Rectangle_33" data-name="Rectangle 33" width="159.775" height="31.545" transform="translate(295.634 130.106)" fill="#e6e6e6"/>
    <circle id="Ellipse_10" data-name="Ellipse 10" cx="9.423" cy="9.423" r="9.423" transform="translate(303.007 136.661)" fill="#ccc"/>
    <rect id="Rectangle_34" data-name="Rectangle 34" width="92.998" height="2.048" transform="translate(334.963 142.396)" fill="#ccc"/>
    <rect id="Rectangle_35" data-name="Rectangle 35" width="92.998" height="2.048" transform="translate(334.963 147.722)" fill="#ccc"/>
    <path id="Path_123" data-name="Path 123" d="M692.594,157.56l-3.375-4.5.8-.6,2.749,3.665,10.824-8.856.633.774Z" transform="translate(-381.022 -81.416)" fill="#f2f2f2"/>
  </g>
</svg>
